<?xml version="1.0" encoding="utf-8"?>

<!-- License Agreement at http://iconmonstr.com/license/ -->

<!DOCTYPE svg PUBLIC "-//W3C//DTD SVG 1.1//EN" "http://www.w3.org/Graphics/SVG/1.1/DTD/svg11.dtd">
<svg version="1.1" xmlns="http://www.w3.org/2000/svg" xmlns:xlink="http://www.w3.org/1999/xlink" x="0px" y="0px"
	 width="512px" height="512px" viewBox="0 0 512 512" enable-background="new 0 0 512 512" xml:space="preserve">
<path id="trophy-8-icon" d="M347.44,99.284c-5.207,87.748-35.791,133.455-60.799,170.828
	c-10.164,15.189-19.384,28.967-25.756,43.615h-9.564c-6.372-14.648-15.592-28.426-25.756-43.615
	c-25.008-37.373-55.592-83.08-60.799-170.828H347.44z M374.924,72.571H137.283c0,168.291,83.082,211.523,94.746,267.869h48.148
	C291.844,284.095,374.924,240.862,374.924,72.571z M329.277,415.726v23.703H182.931v-23.703c37.9,0,47.896-31.801,49.562-53.023
	c0,0,45.623,0,47.223,0C281.38,383.925,290.284,415.726,329.277,415.726z M156.636,254.048C93.625,227.597,56.048,164.556,50,97.948
	h64.554c0.38,7.557,0.913,14.984,1.641,22.26H76.226c6.69,31.365,23.3,73.137,64.215,100.043
	C145.521,232.614,151.026,243.808,156.636,254.048z M462,97.948c-6.039,66.514-43.518,129.469-106.366,155.988
	c5.614-10.262,11.125-21.48,16.206-33.869c40.712-26.914,57.259-68.566,63.935-99.859h-39.762c0.727-7.275,1.261-14.703,1.64-22.26
	H462z M213.412,160.296l29.57-4.084L256,129.355l13.021,26.856l29.566,4.084l-21.523,20.679l5.254,29.381L256,196.277l-26.32,14.078
	l5.256-29.381L213.412,160.296z"/>
</svg>
